<?xml version="1.0" encoding="UTF-8"?>
<svg xmlns="http://www.w3.org/2000/svg" xmlns:xlink="http://www.w3.org/1999/xlink" width="467.89267pt" height="108.719994pt" viewBox="0 0 467.89267 108.719994" version="1.1">
<defs>
<clipPath id="clip1">
  <path d="M 0 0 L 467.894531 0 L 467.894531 108.71875 L 0 108.71875 Z M 0 0 "/>
</clipPath>
</defs>
<g id="surface1">
<g clip-path="url(#clip1)" clip-rule="nonzero">
<path style="fill:none;stroke-width:2;stroke-linecap:butt;stroke-linejoin:miter;stroke:rgb(25.881958%,54.508972%,79.214478%);stroke-opacity:1;stroke-miterlimit:10;" d="M 20.792969 -16.96875 L 24.078125 -22.027344 L 23.996094 -22.039062 L 24.382812 -23.03125 L 24.613281 -24.128906 L 24.828125 -26.207031 L 25.039062 -29.503906 L 24.246094 -47.753906 L 24.273438 -57.742188 L 24.351562 -73.738281 L 24.398438 -74.320312 L 24.308594 -73.03125 M 0 -20.453125 L 0.171875 -20.417969 L 1.558594 -20.78125 L 4.203125 -21.011719 L 8.226562 -20.953125 L 13.5 -20.664062 L 19.707031 -20.152344 L 33.449219 -18.59375 L 61.152344 -15.191406 L 60.941406 -15.175781 M 68.761719 -14.957031 L 69.632812 -22.429688 L 70.722656 -31.351562 L 70.953125 -42.003906 L 70.648438 -61.085938 L 70.875 -65.234375 L 71.0625 -65.222656 L 70.949219 -64.464844 L 70.964844 -62.5625 L 71.402344 -59.445312 L 72.492188 -55.617188 L 74.203125 -51.402344 L 76.457031 -47.277344 L 79.03125 -43.554688 L 81.804688 -40.453125 L 84.761719 -38.136719 L 87.78125 -36.742188 L 90.761719 -36.390625 L 93.59375 -37.125 L 96.15625 -38.992188 L 98.460938 -42.042969 L 100.085938 -45.609375 L 101.429688 -49.917969 L 102.121094 -54.152344 L 102.433594 -58.125 L 102.355469 -64.472656 L 102.34375 -67.480469 L 102.492188 -67.976562 L 102.71875 -67.953125 L 103.15625 -67.097656 M 140.042969 -45.707031 L 137.546875 -42.917969 L 136.050781 -41.980469 L 133.917969 -41.308594 L 131.097656 -41.164062 L 127.660156 -41.746094 L 123.851562 -43.144531 L 120.121094 -45.253906 L 116.84375 -48.183594 L 114.132812 -51.511719 L 112.347656 -55.160156 L 111.640625 -58.726562 L 112.082031 -61.917969 L 113.589844 -64.578125 L 116.015625 -66.542969 L 119.15625 -67.597656 L 122.742188 -67.675781 L 126.554688 -66.734375 L 130.394531 -64.816406 L 134.023438 -62.089844 L 137.246094 -58.792969 L 139.816406 -55.144531 L 141.757812 -51.492188 L 142.972656 -48.167969 L 143.480469 -45.429688 L 143.394531 -43.441406 L 142.953125 -42.253906 L 142.554688 -41.878906 L 142.203125 -41.980469 L 141.796875 -44.976562 L 141.816406 -48.367188 L 142.027344 -52.164062 L 142.363281 -56.109375 L 142.957031 -60 L 143.816406 -63.378906 L 144.832031 -66.28125 L 145.964844 -68.28125 L 147.234375 -69.492188 L 148.101562 -69.832031 L 149.042969 -69.621094 L 149.890625 -68.488281 M 162.238281 -40.828125 L 162.089844 -40.597656 L 162.785156 -43.175781 L 163.164062 -46.003906 L 163.398438 -49.253906 L 163.390625 -52.789062 L 163.628906 -59.832031 L 163.902344 -62.652344 L 164.308594 -64.6875 L 164.667969 -65.574219 L 164.984375 -65.792969 L 165.195312 -65.726562 L 165.125 -64.875 L 165.21875 -62.652344 L 165.652344 -59.546875 L 166.472656 -56.015625 L 167.753906 -52.324219 L 169.433594 -48.699219 L 171.441406 -45.351562 L 173.722656 -42.4375 L 176.273438 -40.148438 L 178.996094 -38.664062 L 181.714844 -38.109375 L 184.296875 -38.527344 L 186.636719 -39.921875 L 188.644531 -42.332031 L 190.148438 -45.554688 L 191.363281 -49.464844 L 191.804688 -53.390625 L 192.089844 -57.34375 L 192.203125 -66.289062 L 192.457031 -67.730469 L 192.898438 -68.480469 L 193.023438 -68.445312 L 193.441406 -67.777344 L 194.15625 -66.171875 M 213.628906 -11.335938 L 213.394531 -11.234375 L 214.085938 -16.320312 L 214.28125 -24.167969 L 213.171875 -44.753906 L 212.71875 -49.914062 L 212.5 -58.804688 L 212.453125 -62.027344 L 212.597656 -64.445312 L 213.230469 -66.792969 L 213.25 -66.773438 L 213.371094 -66.703125 M 233.703125 -40.703125 L 233.386719 -40.457031 L 232.050781 -40.542969 L 230.15625 -41.0625 L 227.175781 -42.035156 L 223.25 -43.523438 L 218.6875 -45.476562 L 214.046875 -47.738281 L 210.054688 -49.992188 L 207.253906 -52.003906 L 205.886719 -53.609375 L 205.996094 -54.722656 L 206.914062 -55.585938 L 208.953125 -56.945312 L 212.203125 -57.757812 L 221.199219 -59.175781 L 226.210938 -59.867188 L 231.074219 -60.660156 L 235.546875 -61.515625 L 242.441406 -63.167969 L 246.289062 -64.25 M 315.648438 -34.597656 L 315.226562 -34.5 L 315.113281 -34.570312 L 315.453125 -35.417969 L 315.808594 -37.3125 L 316.089844 -39.957031 L 316.609375 -43.007812 L 317.371094 -46.28125 L 318.507812 -49.425781 L 320.148438 -52.269531 L 322.175781 -54.546875 L 324.507812 -56.109375 L 326.984375 -56.976562 L 329.429688 -57.089844 L 331.722656 -56.421875 L 333.960938 -54.9375 L 336.039062 -52.589844 L 337.894531 -49.738281 L 339.332031 -46.613281 L 340.371094 -43.476562 L 340.953125 -40.382812 L 341.324219 -37.664062 L 341.363281 -35.359375 L 341.191406 -33.574219 L 340.933594 -32.699219 L 340.578125 -32.398438 L 340.070312 -32.695312 L 340.242188 -33.847656 L 340.445312 -36.070312 L 340.464844 -38.914062 L 341.101562 -50.199219 L 341.855469 -59.257812 L 342.097656 -64.0625 L 341.976562 -74.007812 L 341.660156 -78.933594 L 341.144531 -83.667969 L 340.417969 -88.269531 L 339.421875 -92.589844 L 337.992188 -96.398438 L 336.214844 -99.851562 L 333.875 -102.765625 L 331.007812 -105.160156 L 327.757812 -106.984375 L 324.207031 -108.140625 L 320.445312 -108.71875 L 316.601562 -108.683594 L 312.902344 -108.070312 L 309.566406 -106.96875 L 306.652344 -105.476562 L 304.273438 -103.648438 L 302.675781 -101.535156 M 372.417969 -37.578125 L 371.207031 -36.726562 L 370.300781 -35.859375 L 369.316406 -35.371094 L 367.464844 -34.875 M 366.601562 -34.042969 L 365.789062 -34.824219 L 364.65625 -36.195312 L 363.136719 -38.300781 L 361.769531 -41.277344 L 360.632812 -44.765625 L 359.660156 -48.304688 L 359.457031 -51.894531 L 360.117188 -55.207031 L 361.644531 -58.0625 L 363.96875 -60.304688 L 367.023438 -61.792969 L 370.667969 -62.351562 L 374.609375 -61.996094 L 378.605469 -60.707031 L 382.40625 -58.640625 L 385.714844 -55.972656 L 388.191406 -52.945312 L 389.628906 -49.699219 L 390.011719 -46.433594 L 389.308594 -43.21875 L 387.703125 -40.378906 L 385.246094 -37.984375 L 382.289062 -36.242188 L 379.109375 -35.167969 L 375.910156 -34.785156 L 373.042969 -35.058594 L 370.851562 -35.851562 M 404.136719 -32.464844 L 403.621094 -32.386719 L 403.355469 -32.722656 L 403.085938 -33.71875 L 402.796875 -35.941406 L 402.589844 -38.683594 L 402.617188 -41.914062 L 402.851562 -45.410156 L 403.609375 -49.015625 L 404.957031 -52.339844 L 406.902344 -55.164062 L 409.390625 -57.265625 L 412.238281 -58.421875 L 415.324219 -58.738281 L 418.386719 -58.085938 L 421.40625 -56.546875 L 424.277344 -54.085938 L 426.8125 -50.929688 L 428.847656 -47.34375 L 430.277344 -43.597656 L 431.097656 -39.914062 L 431.5625 -36.734375 L 431.539062 -34.148438 L 431.121094 -32.304688 L 430.792969 -31.453125 L 430.675781 -31.496094 L 430.398438 -31.71875 L 430.632812 -40.320312 L 430.996094 -44.398438 L 431.601562 -48.414062 L 432.484375 -52.085938 L 433.589844 -55.214844 L 434.828125 -57.761719 L 436.066406 -59.546875 L 437.328125 -60.550781 M 466.535156 -0.0976562 L 466.164062 0 L 466.390625 -2.109375 L 466.242188 -4.371094 L 465.515625 -10.800781 L 465.046875 -14.691406 L 464.714844 -18.683594 L 464.625 -22.679688 L 464.9375 -33.183594 L 465.5 -40.226562 L 465.765625 -41.65625 L 466.132812 -42.820312 L 466.605469 -43.683594 L 467.203125 -44.253906 M 466.585938 -60.550781 L 465.980469 -60.617188 L 465.8125 -60.699219 " transform="matrix(1,0,0,-1,0,0)"/>
</g>
</g>
</svg>
