<?xml version="1.0" encoding="UTF-8"?>
<svg xmlns="http://www.w3.org/2000/svg" xmlns:xlink="http://www.w3.org/1999/xlink" width="558pt" height="108.719994pt" viewBox="0 0 558 108.719994" version="1.1">
<defs>
<clipPath id="clip1">
  <path d="M 0 0 L 558 0 L 558 108.71875 L 0 108.71875 Z M 0 0 "/>
</clipPath>
</defs>
<g id="surface1">
<g clip-path="url(#clip1)" clip-rule="nonzero">
<path style="fill:none;stroke-width:2;stroke-linecap:butt;stroke-linejoin:miter;stroke:rgb(25.881958%,54.508972%,79.214478%);stroke-opacity:1;stroke-miterlimit:10;" d="M 2.289062 -4.332031 L 3.398438 -8.835938 L 4.792969 -13.640625 L 8.3125 -23.730469 L 11.472656 -31.382812 L 13.351562 -35.585938 M 25.855469 -1.832031 L 25.699219 -2.226562 L 24.0625 -8.34375 L 19.882812 -22.347656 L 16.925781 -31.445312 L 10.050781 -51.457031 L 0.3125 -79.257812 L 0 -81.144531 L 0.300781 -81.648438 L 1.222656 -81.167969 L 2.660156 -78.890625 M 31.996094 -45.449219 L 31.335938 -44.882812 L 30.371094 -44.640625 L 29.015625 -45.242188 L 27.273438 -46.90625 L 25.421875 -50.085938 L 23.730469 -54.894531 L 22.304688 -60.207031 L 21.496094 -65.660156 L 21.480469 -70.300781 L 22.28125 -73.625 L 23.773438 -75.5625 L 25.769531 -75.953125 L 27.882812 -74.246094 L 30.042969 -71.441406 L 31.960938 -67.507812 L 33.417969 -62.730469 L 34.234375 -57.765625 L 34.296875 -53.160156 L 33.652344 -49.554688 L 32.515625 -47.253906 L 31.097656 -46.171875 L 29.597656 -46.222656 L 28.230469 -47.382812 L 27.265625 -49.398438 L 26.875 -51.875 L 27.128906 -54.351562 L 28.019531 -56.335938 L 29.554688 -57.46875 M 41.941406 -46.0625 L 41.324219 -47.667969 L 40.765625 -50.472656 L 40.328125 -54.089844 L 40.148438 -58.691406 L 40.222656 -63.394531 L 40.601562 -67.578125 L 41.332031 -70.796875 L 42.464844 -72.699219 L 43.859375 -73.039062 L 45.503906 -71.925781 L 47.285156 -69.191406 L 49.089844 -65.125 L 50.742188 -60.203125 L 52.105469 -55.0625 L 53.066406 -50.453125 L 53.605469 -46.949219 L 53.722656 -44.867188 L 53.585938 -44.324219 L 53.402344 -44.316406 L 53.066406 -47.828125 L 52.8125 -57.460938 L 52.875 -62.644531 L 53.203125 -67.351562 L 53.765625 -71.171875 L 54.53125 -73.960938 L 55.4375 -75.527344 M 62.96875 -48.742188 L 62.707031 -49.960938 L 62.605469 -52.671875 L 62.609375 -70.980469 L 62.828125 -72.441406 L 62.960938 -72.414062 L 62.863281 -71.148438 L 62.78125 -67.933594 L 62.859375 -63.90625 L 63.082031 -59.503906 L 63.460938 -55.207031 L 64.023438 -51.398438 L 64.777344 -48.222656 L 65.761719 -45.75 L 67.058594 -44.085938 L 68.722656 -43.238281 M 110.039062 -43.597656 L 109.617188 -42.917969 L 108.75 -41.933594 L 107.703125 -41.140625 L 106.300781 -40.65625 L 104.621094 -40.785156 L 102.621094 -41.820312 L 100.40625 -43.917969 L 98.175781 -47.144531 L 96.222656 -51.292969 L 94.753906 -56.027344 L 94.019531 -60.824219 L 94.074219 -65.054688 L 94.957031 -68.199219 L 96.527344 -70.042969 L 98.414062 -70.300781 L 100.671875 -69.257812 L 102.957031 -66.726562 L 105.101562 -63.171875 L 106.894531 -58.851562 L 108.519531 -54.347656 L 109.503906 -49.886719 L 110 -46.386719 L 109.988281 -44.136719 L 109.8125 -43.347656 L 109.558594 -43.183594 L 109.320312 -43.265625 L 108.996094 -48.296875 L 108.144531 -66.449219 L 107.554688 -81.222656 L 107.140625 -88.304688 L 106.605469 -94.8125 L 106.019531 -100.425781 L 105.425781 -104.660156 L 104.855469 -107.445312 L 104.371094 -108.71875 L 104.019531 -108.578125 M 116.003906 -46.699219 L 115.382812 -51.71875 L 115.324219 -55.15625 L 115.496094 -58.753906 L 115.917969 -62.203125 L 116.566406 -65.09375 L 117.421875 -67.222656 L 118.519531 -68.40625 L 119.800781 -68.492188 L 121.222656 -67.398438 L 122.726562 -65.082031 L 124.246094 -61.691406 L 125.652344 -57.5625 L 126.832031 -53.144531 L 128.109375 -45.191406 L 128.300781 -42.503906 L 128.199219 -40.886719 L 128.015625 -40.390625 L 127.871094 -40.449219 M 132.148438 -54.261719 L 133.214844 -54.632812 L 134.625 -54.808594 L 136.164062 -54.6875 L 137.75 -53.933594 L 139.261719 -52.75 L 140.558594 -51.207031 L 141.507812 -49.386719 L 142.035156 -47.425781 L 142.089844 -45.46875 L 141.617188 -43.695312 L 140.65625 -42.28125 L 139.261719 -41.53125 L 137.507812 -41.609375 L 135.492188 -42.71875 L 133.410156 -44.859375 L 131.519531 -47.9375 L 130.066406 -51.601562 L 129.214844 -55.589844 L 129.109375 -59.613281 L 129.820312 -63.339844 L 131.1875 -66.269531 L 133.226562 -68.496094 L 135.707031 -69.6875 L 138.523438 -69.84375 L 141.445312 -69.039062 L 144.191406 -67.484375 L 146.613281 -65.386719 L 148.632812 -62.882812 M 157.355469 -42.921875 L 156.472656 -42.015625 L 155.820312 -41.695312 L 155.019531 -41.757812 L 153.914062 -42.339844 L 152.5625 -43.496094 L 151.417969 -45.355469 L 150.386719 -47.292969 L 149.863281 -49.394531 L 149.925781 -51.570312 L 150.507812 -53.929688 L 151.710938 -56.296875 L 153.378906 -58.476562 L 155.347656 -60.464844 L 159.386719 -64.152344 L 160.96875 -65.773438 L 162.019531 -67.210938 L 162.4375 -68.007812 L 162.359375 -68.515625 L 160.304688 -69.558594 L 158.144531 -69.90625 L 155.589844 -70.050781 L 152.988281 -70.007812 L 150.597656 -69.773438 L 148.664062 -69.261719 L 147.359375 -68.402344 M 171.71875 -18.402344 L 171.519531 -18.445312 L 171.410156 -25.878906 L 170.472656 -52.65625 L 170.4375 -62.148438 L 170.644531 -68.011719 L 170.753906 -69.40625 L 170.773438 -69.359375 L 170.816406 -68.367188 M 167.039062 -48.625 L 167.101562 -48.476562 L 169.191406 -48.726562 L 173.179688 -48.746094 L 177.382812 -48.570312 L 181.753906 -48.097656 L 182.453125 -48.167969 L 182.859375 -48.390625 M 186.605469 -46.351562 L 186.660156 -46.511719 L 186.808594 -47.308594 L 186.933594 -48.792969 L 186.976562 -51.078125 L 186.8125 -57.269531 L 186.570312 -63.332031 L 186.671875 -65.464844 L 186.910156 -66.71875 L 187.191406 -67.007812 L 187.4375 -66.0625 M 188.449219 -26.78125 L 188.207031 -26.136719 L 188.367188 -26.363281 L 188.730469 -27.195312 L 189.152344 -28.140625 L 189.746094 -29.179688 M 204.714844 -50.210938 L 204.195312 -50.152344 L 203.476562 -49.949219 L 202.546875 -49.917969 L 201.378906 -50.191406 L 199.984375 -51.035156 L 198.53125 -52.597656 L 196.976562 -54.671875 L 195.652344 -57.378906 L 194.730469 -60.453125 L 194.34375 -63.671875 L 194.582031 -66.8125 L 195.460938 -69.5 L 196.976562 -71.585938 L 198.960938 -72.761719 L 201.253906 -73 L 203.730469 -72.257812 L 206.023438 -70.542969 L 208.058594 -68.214844 L 209.589844 -65.339844 L 210.558594 -62.117188 L 210.871094 -58.851562 L 210.464844 -55.761719 L 209.441406 -53.125 L 207.988281 -51.132812 L 206.289062 -49.910156 L 204.492188 -49.453125 L 202.851562 -49.773438 L 201.585938 -50.628906 M 217.351562 -46.992188 L 217.21875 -46.949219 L 217.285156 -49.003906 L 217.46875 -53.964844 L 217.691406 -66.046875 L 217.890625 -67.8125 L 218.085938 -68.566406 L 218.144531 -68.460938 L 218.421875 -63.289062 L 218.925781 -59.628906 L 219.761719 -55.828125 L 220.871094 -52.199219 L 222.171875 -49.019531 L 223.636719 -46.5 L 225.171875 -44.847656 L 226.65625 -44.253906 L 228.035156 -44.835938 L 229.140625 -46.3125 L 230.082031 -48.761719 L 230.78125 -52.210938 L 231.136719 -55.832031 L 231.21875 -62.996094 L 231.148438 -68.222656 L 231.335938 -69.558594 L 231.605469 -70.183594 L 231.90625 -70.238281 L 232.355469 -69.488281 L 233.050781 -67.894531 M 248.1875 -44.144531 L 247.910156 -43.53125 L 247.238281 -42.742188 L 246.558594 -42.355469 L 245.492188 -42.234375 L 244.089844 -42.644531 L 242.449219 -43.625 L 240.773438 -45.035156 L 239.34375 -46.753906 L 238.390625 -48.535156 L 238.050781 -50.328125 L 238.394531 -52.191406 L 239.484375 -54.117188 L 241.265625 -55.921875 L 243.53125 -57.523438 L 248.609375 -60.667969 L 250.878906 -62.261719 L 252.613281 -63.835938 L 253.582031 -65.0625 L 253.800781 -65.917969 L 253.566406 -66.660156 L 252.652344 -67.433594 L 250.910156 -68.34375 L 248.511719 -68.882812 L 245.808594 -69.214844 L 243.039062 -69.367188 L 240.46875 -69.3125 L 238.351562 -69.003906 L 236.886719 -68.503906 L 236.0625 -67.839844 L 235.894531 -66.996094 L 236.5 -65.878906 M 295.109375 -45.003906 L 294.027344 -43.160156 L 293.222656 -42.214844 L 292.261719 -41.425781 L 290.992188 -40.9375 L 289.40625 -40.941406 L 287.519531 -41.648438 L 285.410156 -43.070312 L 283.273438 -45.210938 L 281.273438 -48.019531 L 279.574219 -51.402344 L 278.347656 -55.097656 L 277.820312 -58.691406 L 278.003906 -61.929688 L 278.753906 -64.386719 L 280.113281 -66.023438 L 281.9375 -66.78125 L 284.042969 -66.40625 L 286.277344 -65 L 288.546875 -62.753906 L 290.617188 -59.765625 L 292.453125 -56.339844 L 293.863281 -52.648438 L 294.847656 -49.035156 L 295.335938 -45.910156 L 295.457031 -42.476562 L 295.316406 -42.695312 L 295.019531 -46.257812 L 294.984375 -49.875 L 295.066406 -53.773438 L 295.28125 -57.597656 L 295.640625 -61.167969 L 296.28125 -64.015625 L 297.074219 -65.984375 L 297.988281 -67.183594 L 298.882812 -67.457031 L 299.820312 -66.75 M 305.839844 -41.5 L 305.746094 -41.3125 L 306.035156 -43.878906 L 306.453125 -61.859375 L 306.703125 -63.179688 L 306.695312 -63.160156 L 306.804688 -62.898438 L 306.871094 -61.882812 L 306.933594 -59.234375 L 307.285156 -55.667969 L 307.949219 -51.765625 L 308.882812 -47.902344 L 310.042969 -44.390625 L 311.375 -41.464844 L 312.867188 -39.3125 L 314.398438 -38.15625 L 315.871094 -38.160156 L 317.050781 -39.089844 L 318.25 -41.378906 L 319.082031 -44.53125 L 319.640625 -48.175781 L 319.996094 -51.9375 L 320.542969 -62.789062 L 320.941406 -63.5625 M 336.316406 -44.058594 L 335.648438 -42.085938 L 335.140625 -41.050781 L 334.511719 -40.222656 L 333.507812 -39.675781 L 332.191406 -39.671875 L 330.636719 -40.40625 L 328.957031 -41.925781 L 327.316406 -44.050781 L 326.03125 -46.882812 L 325.144531 -50.125 L 324.753906 -53.519531 L 325.007812 -56.792969 L 325.871094 -59.683594 L 327.121094 -61.613281 L 328.890625 -62.644531 L 330.984375 -62.574219 L 333.148438 -61.308594 L 335.296875 -58.96875 L 337.324219 -55.664062 L 339.085938 -51.609375 L 340.488281 -47.023438 L 341.460938 -42.148438 L 342.054688 -37.230469 L 342.460938 -27.292969 L 342.421875 -22.992188 L 342.257812 -19.371094 L 341.953125 -16.539062 L 341.371094 -13.949219 L 341.289062 -14.09375 L 340.871094 -30.914062 L 340.957031 -36.367188 L 341.1875 -41.714844 L 341.546875 -46.820312 L 342.519531 -55.113281 L 343.097656 -58.148438 L 343.726562 -60.289062 L 344.292969 -61.574219 L 344.894531 -62.25 L 345.449219 -62.121094 L 346.109375 -61.257812 M 387.476562 -35.382812 L 386.457031 -34.265625 L 385.652344 -33.859375 L 384.511719 -33.503906 L 383.164062 -33.75 L 381.390625 -34.449219 L 379.328125 -35.8125 L 377.144531 -37.839844 L 375.019531 -40.445312 L 373.140625 -43.511719 L 371.699219 -46.957031 L 370.847656 -50.550781 L 370.691406 -54.035156 L 371.285156 -57.246094 L 372.613281 -60.054688 L 374.660156 -62.175781 L 377.304688 -63.4375 L 380.363281 -63.832031 L 383.671875 -63.503906 L 387.058594 -62.609375 L 390.203125 -61.363281 L 392.859375 -59.914062 L 394.96875 -58.425781 L 396.601562 -56.910156 M 405.542969 -38.996094 L 404.832031 -37.707031 L 404.320312 -37.160156 L 403.484375 -36.644531 L 402.4375 -36.601562 L 401.027344 -37.175781 L 399.472656 -38.316406 L 397.898438 -39.984375 L 396.441406 -42.191406 L 395.21875 -44.882812 L 394.347656 -48.03125 L 393.917969 -51.394531 L 394.117188 -54.757812 L 394.921875 -57.8125 L 396.246094 -60.175781 L 398.148438 -61.722656 L 400.425781 -62.378906 L 402.878906 -62.027344 L 405.296875 -60.839844 L 407.53125 -58.882812 L 409.347656 -56.335938 L 410.648438 -53.371094 L 411.355469 -50.21875 L 411.554688 -47.3125 L 411.070312 -44.640625 L 410.085938 -42.4375 L 408.765625 -40.871094 L 407.335938 -39.976562 M 418.792969 -37.128906 L 418.722656 -37.148438 L 418.90625 -38.714844 L 419.117188 -42.992188 L 419.4375 -51.988281 L 419.667969 -54.652344 L 419.984375 -56.691406 L 420.546875 -58.183594 L 420.636719 -57.929688 L 420.816406 -56.882812 L 420.9375 -54.425781 L 421.730469 -47.84375 L 422.316406 -44.363281 L 423.011719 -41.046875 L 423.929688 -38.164062 L 424.96875 -35.863281 L 426.097656 -34.300781 L 427.25 -33.671875 L 428.425781 -34.089844 L 429.304688 -35.289062 L 430.183594 -37.507812 L 430.914062 -40.351562 L 431.488281 -43.464844 L 432.191406 -49.253906 L 432.703125 -53.421875 L 432.71875 -52.839844 L 432.625 -51.3125 L 432.6875 -48.792969 L 433.046875 -45.902344 L 433.574219 -42.730469 L 434.355469 -39.550781 L 435.355469 -36.652344 L 436.511719 -34.203125 L 437.820312 -32.390625 L 439.066406 -31.238281 L 440.46875 -31.097656 L 441.617188 -31.828125 L 442.632812 -33.324219 L 443.582031 -35.808594 L 444.304688 -38.679688 L 444.847656 -41.824219 L 446.460938 -53.40625 L 446.839844 -54.050781 M 454.015625 -31 L 454.011719 -30.964844 L 454.511719 -34.59375 L 454.863281 -39.953125 L 455.136719 -45.792969 L 455.355469 -48.265625 L 455.640625 -50.113281 L 455.960938 -51.148438 L 455.960938 -51.121094 L 456.058594 -50.832031 L 456.238281 -49.199219 L 456.375 -46.3125 L 457.046875 -39.660156 L 457.539062 -36.25 L 458.234375 -33.132812 L 459.105469 -30.40625 L 460.140625 -28.339844 L 461.277344 -27.042969 L 462.464844 -26.714844 L 463.527344 -27.261719 L 464.535156 -28.800781 L 465.414062 -31.15625 L 466.179688 -34.046875 L 466.796875 -37.078125 L 467.246094 -39.976562 L 467.925781 -46.167969 L 467.941406 -46.09375 L 468.007812 -45.824219 L 467.839844 -44.511719 L 467.816406 -42.332031 L 467.957031 -39.652344 L 468.328125 -36.761719 L 468.902344 -33.757812 L 469.6875 -30.949219 L 470.648438 -28.449219 L 471.777344 -26.457031 L 473.085938 -25.082031 L 474.273438 -24.394531 L 475.476562 -24.597656 L 476.566406 -25.632812 L 477.59375 -27.472656 L 478.445312 -30 L 479.105469 -32.863281 L 479.9375 -39.125 L 480.894531 -47.878906 L 481.375 -49.304688 L 481.683594 -49.308594 L 482.148438 -48.730469 M 488.398438 -38.917969 L 488.589844 -39.019531 L 489.144531 -39.121094 L 490.320312 -38.949219 L 491.871094 -38.253906 L 493.699219 -37.207031 L 495.546875 -35.859375 L 497.242188 -34.3125 L 498.664062 -32.628906 L 499.707031 -30.929688 L 500.300781 -29.285156 L 500.371094 -27.710938 L 500.195312 -26.25 L 499.449219 -25.085938 L 498.1875 -24.21875 L 496.546875 -24.019531 L 494.660156 -24.445312 L 492.632812 -25.53125 L 490.550781 -27.121094 L 488.621094 -29.28125 L 487.007812 -31.902344 L 485.84375 -34.816406 L 485.214844 -37.914062 L 485.132812 -41.070312 L 485.523438 -43.949219 L 486.5 -46.464844 L 488.136719 -48.597656 L 490.132812 -50.011719 L 492.675781 -50.792969 L 495.476562 -50.882812 L 498.320312 -50.410156 L 501.070312 -49.546875 L 503.625 -48.347656 M 508.800781 -26.503906 L 508.675781 -26.414062 L 509.101562 -28.980469 L 509.511719 -33.867188 L 510.121094 -42.371094 L 510.4375 -44.652344 L 511.058594 -47.054688 L 511.058594 -46.988281 L 511.136719 -46.699219 L 511.046875 -45.558594 L 511.054688 -43.414062 L 511.378906 -37.546875 L 511.820312 -34.222656 L 512.558594 -31.003906 L 513.539062 -28.054688 L 514.722656 -25.550781 L 516.085938 -23.664062 L 517.585938 -22.566406 L 518.953125 -22.269531 L 520.363281 -22.925781 L 521.5625 -24.328125 L 522.6875 -26.515625 L 523.59375 -29.246094 L 524.265625 -32.328125 L 524.816406 -35.445312 L 525.792969 -43.539062 L 526.117188 -45.269531 L 526.84375 -46.863281 L 527.140625 -47.035156 L 527.472656 -46.519531 L 527.957031 -45.3125 M 536.054688 -0.226562 L 535.914062 0 L 535.855469 -0.0898438 L 535.773438 -0.316406 L 535.953125 -6.761719 L 535.816406 -10.082031 L 535.796875 -18.261719 L 536.121094 -27.359375 L 536.703125 -35.476562 L 537.347656 -41.476562 L 537.753906 -44.574219 L 537.695312 -44.734375 L 537.796875 -44.445312 M 532.496094 -26.808594 L 532.398438 -26.835938 L 532.402344 -26.738281 L 532.285156 -26.511719 L 531.910156 -26.425781 L 531.363281 -25.949219 L 531.011719 -25.933594 L 530.964844 -25.941406 M 551.832031 -17.527344 L 550.929688 -16.761719 L 550.164062 -16.355469 L 549.289062 -16.417969 L 547.941406 -16.644531 L 546.453125 -17.347656 L 544.835938 -18.351562 L 543.265625 -19.570312 L 541.941406 -20.890625 L 540.988281 -22.171875 L 540.476562 -23.441406 L 540.625 -24.726562 L 541.167969 -26.039062 L 542.285156 -27.351562 L 543.988281 -28.609375 L 548.355469 -30.828125 L 550.632812 -31.925781 L 552.769531 -33.125 L 554.660156 -34.359375 L 556.132812 -35.652344 L 557.179688 -36.886719 L 557.816406 -38.09375 L 558 -39.058594 L 557.816406 -39.894531 L 557.269531 -40.695312 L 556.277344 -41.496094 L 554.835938 -42.207031 L 552.941406 -42.800781 L 550.691406 -43.175781 L 548.179688 -43.402344 " transform="matrix(1,0,0,-1,0,0)"/>
</g>
</g>
</svg>
